<?xml version="1.0" encoding="utf-8"?>
<!-- Generator: Adobe Illustrator 21.1.0, SVG Export Plug-In . SVG Version: 6.00 Build 0)  -->
<svg version="1.1" id="Layer_1" xmlns="http://www.w3.org/2000/svg" xmlns:xlink="http://www.w3.org/1999/xlink" x="0px" y="0px"
	 viewBox="0 0 500 500" style="enable-background:new 0 0 500 500;" xml:space="preserve">
<style type="text/css">
	.st0{fill:#4B4BBC;}
	.st1{fill:#1B1464;}
</style>
<path class="st0" d="M241,51C131.1,51,42,140.1,42,250s89.1,199,199,199c24.5,0,47.9-4.4,69.5-12.5l-10.8-37.2
	c-18.2,7.2-38,11.1-58.8,11.1c-88.6,0-160.5-71.9-160.5-160.5c0-88.6,71.9-160.5,160.5-160.5S401.5,161.4,401.5,250
	c0,40.8-15.2,78-40.3,106.3c-11,12.4-23.8,23.1-38.1,31.6l11,38c14.1-7.4,27.2-16.6,39-27.1C414.1,362.4,440,309.2,440,250
	C440,140.1,350.9,51,241,51z"/>
<polygon class="st0" points="266.9,325.3 225.6,177.3 176.6,176.8 217.9,324.9 "/>
<polygon class="st0" points="352.5,325.3 311.2,177.3 262.2,176.8 303.5,324.9 "/>
<polygon class="st1" points="224.8,177.2 182.2,324.9 133.2,324.9 175.8,177.2 "/>
<polygon class="st1" points="310.4,177.2 267.7,324.9 218.7,324.9 261.4,177.2 "/>
<path class="st0" d="M373.1,398.8c-12.4,11-26.1,20.5-41,28.2l-10.6-38.1l-18.6-66.5l49,0.4l9.4,33.5L373.1,398.8z"/>
</svg>
